<svg xmlns="http://www.w3.org/2000/svg" xmlns:xlink="http://www.w3.org/1999/xlink" version="1.1" x="0px" y="0px" viewBox="0 0 64 80" enable-background="new 0 0 64 64" xml:space="preserve"><g><g><path fill-rule="evenodd" clip-rule="evenodd" d="M33.29,38.926c0.481-2.231-0.989-5.247-3.359-3.601    C29.432,37.258,31.055,41.189,33.29,38.926z"/><path fill-rule="evenodd" clip-rule="evenodd" d="M46.49,39.405c-1.072-1.062-3.372-0.05-2.88,1.92    c1.188,0.974,1.94,2.585,3.36,2.4c1.987-0.259,3.077-4.651,4.08-6.24C49.389,35.395,47.2,37.69,46.49,39.405z"/><path fill-rule="evenodd" clip-rule="evenodd" d="M29.931,44.926c-0.055,2.907,0.335,5.808,0.48,9.84    c0.764,0.196,0.97,0.949,1.92,0.96c0.387-0.333,0.76-0.681,1.2-0.96c-0.526-3.847-0.401-6.739-0.479-11.28    C30.583,41.455,30.453,45.831,29.931,44.926z"/><path fill-rule="evenodd" clip-rule="evenodd" d="M47.211,30.525c-0.835,0.044-1.487,0.575-2.16,0.48    c0.175,0.025,0.137-0.589,0-0.72c-0.359-0.342-0.748,0.231-1.2,0c-1.423-0.728-3.021-2.356-4.8-2.64    c1.417,0.052,0.753-2.426,1.92-2.16c-0.035,0.284-0.428,0.544,0,0.72c0.324-1.541,2.358-2.295,1.439-4.32    c0.706-0.018,1.007-0.197,1.44-0.96c0.165-0.965-0.23-1.37-0.24-2.16c0.948,0.584-0.178-0.268,0.48-0.48    c0.297-3.463-2.309-7.123-3.841-9.36c-1.522-0.735-3.354-1.268-4.56-1.68c0.282-0.038,0.682,0.041,0.72-0.24    c-0.849-0.965-2.194-0.03-2.88-0.96c-1.04,0-2.08,0-3.12,0c-4.701,1.215-9.009,4.354-10.08,9.36c-1.012,4.728,1.319,9.362,4.8,12    c-7.235,2.529-14.192,9.812-14.88,19.68c0,2.561,0,5.12,0,7.681c0.644,1.151-0.123,2.469,1.44,2.88c0.24,0,0.48,0,0.72,0    c0.218-0.422,0.841-0.439,1.2-0.72c-0.252-7.728-0.204-14.594,2.64-19.681c0.097-0.174,0.781-0.243,0.96-0.479    c0.55-0.729,0.708-1.695,1.2-2.16c5.366-5.066,17.078-8.15,24.24-1.92c-8.008,5.166-1.864,19.488,8.4,16.08    c0.148,2.651-0.305,5.904,0.239,8.16c0.48,0,0.961,0,1.44,0c0.547-2.494,0.09-5.99,0.24-8.881    C60.063,42.582,57.335,29.986,47.211,30.525z M32.09,26.925c-5.803-0.024-11.307-6.001-7.92-12.72c0.477-0.4,0.305,0.021,0.96,0    c-0.95-0.433,0.067-1.434,0.72-1.68c-0.046,0.194-0.241,0.239-0.24,0.48c0.956-0.803,1.354-0.824,1.2-1.68    c0.885,0.34,2.416-0.571,3.6-1.68c0.749,0.952,1.199,0.133,2.16,0.24C43.646,11.118,41.922,26.966,32.09,26.925z M52.49,45.405    c-5.163,3.563-11.827-0.084-11.52-5.28c0.117-1.987,1.628-2.73,1.92-4.079c0.883,0.457,2.293-1.39,3.84-2.4    c3.351,0.29,6.87,1.674,7.68,4.8C54.998,40.712,53.536,43.147,52.49,45.405z"/></g></g><text x="0" y="79" fill="#000000" font-size="5px" font-weight="bold" font-family="'Helvetica Neue', Helvetica, Arial-Unicode, Arial, Sans-serif">Created by Ralf Schmitzer</text><text x="0" y="84" fill="#000000" font-size="5px" font-weight="bold" font-family="'Helvetica Neue', Helvetica, Arial-Unicode, Arial, Sans-serif">from the Noun Project</text></svg>